{"title":"Attack On Titan (01-13) [BD 720p] [Dual Audio] [Hi10]","uid":10279109,"size":8380053493,"categoryP":"video","categoryS":"hd___tv_shows","magnet":"?xt=urn:btih:bf0be494a67c7f5e9209e7b031e2f2fc5a92c091&amp;dn=Attack+On+Titan+%2801-13%29+%5BBD+720p%5D+%5BDual+Audio%5D+%5BHi10%5D&amp;tr=udp%3A%2F%2Ftracker.openbittorrent.com%3A80&amp;tr=udp%3A%2F%2Fopen.demonii.com%3A1337&amp;tr=udp%3A%2F%2Ftracker.coppersurfer.tk%3A6969&amp;tr=udp%3A%2F%2Fexodus.desync.com%3A6969","seeders":1,"leechers":0,"uploader":"darkj6","files":-1,"time":1401674430,"description":" ______   _______  ______    ___   _      ___  --------|\n|      | |   _   ||    _ |  |   | | |    |   ||   |----|    \n|  _    ||  |_|  ||   | ||  |   |_| |    |   ||   |___ \n| | |   ||       ||   |_||_ |      _|    |   ||    _  |\n| |_|   ||       ||    __  ||     |_  ___|   ||   | | |\n|       ||   _   ||   |  | ||    _  ||       ||   |_| |\n|______| |__| |__||___|  |_||___| |_||_______||_______|\n &lt;a href=&quot;\nhttp://s15.postimg.org/o04l9cjvf/Attack_On_Titan_Episode_01_To_You_In_2000_Years.jpg&quot; rel=&quot;nofollow&quot; target=&quot;_NEW&quot;&gt;\nhttp://s15.postimg.org/o04l9cjvf/Attack_On_Titan_Episode_01_To_You_In_2000_Years.jpg&lt;/a&gt;\n\nAttack On Titan (01-13) [BD 720p] [Dual Audio] [Hi10]\n\nVideo\n\nSource: R1 Bluray\nContainer: MKV \nResolution: 1280x720\nBitrate: CRF 18\nSubme=11\n10-bit:\n\nAudio \n\nTrack 1 English 5.1 (AC3) (Default) (640kbps)\nTrack 2 Japanese 2.0 (AC3) (448kbps)\nTrack 3 English Commentary (AC3) (448kbps)\n\nSubtitles\n\nTrack 1 Signs And Songs (PGS) (Default)\nTrack 2 English (PGS) \n\nIncludes \n\nCommentary On Episodes 3,13\nCustom Chapter Names\nCustom Track Names\nOP and ED Themes\nSubtitles (PGS) in a separate folder\n\nEncoded using MeGUI\nwith my preferred slowest settings\n\nHigh &lt;a class=&quot;__cf_email__&quot; href=&quot;/cdn-cgi/l/email-protection&quot; data-cfemail=&quot;fccdccbcb0c8d2cc&quot;&gt;[email&amp;#160;protected]&lt;/a&gt;&lt;script cf-hash='f9e31' type=&quot;text/javascript&quot;&gt;\n/* &lt;![CDATA[ */!function(){try{var t=&quot;currentScript&quot;in document?document.currentScript:function(){for(var t=document.getElementsByTagName(&quot;script&quot;),e=t.length;e--;)if(t[e].getAttribute(&quot;cf-hash&quot;))return t[e]}();if(t&amp;&amp;t.previousSibling){var e,r,n,i,c=t.previousSibling,a=c.getAttribute(&quot;data-cfemail&quot;);if(a){for(e=&quot;&quot;,r=parseInt(a.substr(0,2),16),n=2;a.length-n;n+=2)i=parseInt(a.substr(n,2),16)^r,e+=String.fromCharCode(i);e=document.createTextNode(e),c.parentNode.replaceChild(e,c)}}}catch(u){}}();/* ]]&gt; */&lt;/script&gt; 720p\nHigh &lt;a class=&quot;__cf_email__&quot; href=&quot;/cdn-cgi/l/email-protection&quot; data-cfemail=&quot;c4f5f48488f0eaf5&quot;&gt;[email&amp;#160;protected]&lt;/a&gt;&lt;script cf-hash='f9e31' type=&quot;text/javascript&quot;&gt;\n/* &lt;![CDATA[ */!function(){try{var t=&quot;currentScript&quot;in document?document.currentScript:function(){for(var t=document.getElementsByTagName(&quot;script&quot;),e=t.length;e--;)if(t[e].getAttribute(&quot;cf-hash&quot;))return t[e]}();if(t&amp;&amp;t.previousSibling){var e,r,n,i,c=t.previousSibling,a=c.getAttribute(&quot;data-cfemail&quot;);if(a){for(e=&quot;&quot;,r=parseInt(a.substr(0,2),16),n=2;a.length-n;n+=2)i=parseInt(a.substr(n,2),16)^r,e+=String.fromCharCode(i);e=document.createTextNode(e),c.parentNode.replaceChild(e,c)}}}catch(u){}}();/* ]]&gt; */&lt;/script&gt; 1080p\n\nref=8 / deblock=1:0:0 /me=umh / subme=11 / me_range=24 / trellis=2 / fast_pskip=0 / bframes=5 / crf=18.0 / qcomp=0.60 / vbv_maxrate=25000 / vbv_bufsize=31250 \n\nMediaInfo\n\nVideo\nID : 1\nFormat : AVC\nFormat/Info : Advanced Video Codec\nFormat profile : High &lt;a class=&quot;__cf_email__&quot; href=&quot;/cdn-cgi/l/email-protection&quot; data-cfemail=&quot;f8c9c8b8b4ccd6c8&quot;&gt;[email&amp;#160;protected]&lt;/a&gt;&lt;script cf-hash='f9e31' type=&quot;text/javascript&quot;&gt;\n/* &lt;![CDATA[ */!function(){try{var t=&quot;currentScript&quot;in document?document.currentScript:function(){for(var t=document.getElementsByTagName(&quot;script&quot;),e=t.length;e--;)if(t[e].getAttribute(&quot;cf-hash&quot;))return t[e]}();if(t&amp;&amp;t.previousSibling){var e,r,n,i,c=t.previousSibling,a=c.getAttribute(&quot;data-cfemail&quot;);if(a){for(e=&quot;&quot;,r=parseInt(a.substr(0,2),16),n=2;a.length-n;n+=2)i=parseInt(a.substr(n,2),16)^r,e+=String.fromCharCode(i);e=document.createTextNode(e),c.parentNode.replaceChild(e,c)}}}catch(u){}}();/* ]]&gt; */&lt;/script&gt;\nFormat settings, CABAC : Yes\nFormat settings, ReFrames : 8 frames\nCodec ID : V_MPEG4/ISO/AVC\nDuration : 25mn 42s\nBit rate : 2 201 Kbps\nWidth : 1 280 pixels\nHeight : 720 pixels\nDisplay aspect ratio : 16:9\nFrame rate mode : Constant\nFrame rate : 23.976 fps\nColor space : YUV\nChroma subsampling : 4:2:0\nBit depth : 10 bits\nScan type : Progressive\nBits/(Pixel*Frame) : 0.100\nStream size : 405 MiB (66%)\nTitle : Attack On Titan Episode 01 To You, In 2000 Years The Fall Of Shiganshina, Part 01\nWriting library : x264 core 138 r2358 9e941d1\nEncoding settings : cabac=1 / ref=8 / deblock=1:0:0 / analyse=0x3:0x133 / me=umh / subme=11 / psy=1 / psy_rd=1.00:0.00 / mixed_ref=1 / me_range=24 / chroma_me=1 / trellis=2 / 8x8dct=1 / cqm=0 / deadzone=21,11 / fast_pskip=0 / chroma_qp_offset=-2 / threads=6 / lookahead_threads=1 / sliced_threads=0 / nr=0 / decimate=1 / interlaced=0 / bluray_compat=0 / constrained_intra=0 / bframes=5 / b_pyramid=2 / b_adapt=2 / b_bias=0 / direct=3 / weightb=1 / open_gop=0 / weightp=2 / keyint=240 / keyint_min=23 / scenecut=40 / intra_refresh=0 / rc_lookahead=60 / rc=crf / mbtree=1 / crf=18.0 / qcomp=0.60 / qpmin=0 / qpmax=81 / qpstep=4 / vbv_maxrate=25000 / vbv_bufsize=31250 / crf_max=0.0 / nal_hrd=none / ip_ratio=1.40 / aq=1:1.00\nLanguage : English\nDefault : Yes\nForced : No\n\nAudio #1\nID : 2\nFormat : AC-3\nFormat/Info : Audio Coding 3\nMode extension : CM (complete main)\nFormat settings, Endianness : Big\nCodec ID : A_AC3\nDuration : 25mn 41s\nBit rate mode : Constant\nBit rate : 640 Kbps\nChannel(s) : 6 channels\nChannel positions : Front: L C R, Side: L R, LFE\nSampling rate : 48.0 KHz\nBit depth : 16 bits\nCompression mode : Lossy\nStream size : 118 MiB (19%)\nTitle : English 5.1\nLanguage : English\nDefault : Yes\nForced : No\n\nAudio #2\nID : 3\nFormat : AC-3\nFormat/Info : Audio Coding 3\nMode extension : CM (complete main)\nFormat settings, Endianness : Big\nCodec ID : A_AC3\nDuration : 25mn 41s\nBit rate mode : Constant\nBit rate : 448 Kbps\nChannel(s) : 2 channels\nChannel positions : Front: L R\nSampling rate : 48.0 KHz\nBit depth : 16 bits\nCompression mode : Lossy\nStream size : 82.4 MiB (13%)\nTitle : Japanese 2.0\nLanguage : Japanese\nDefault : No\nForced : No\n\nText #1\nID : 4\nFormat : PGS\nMuxing mode : zlib\nCodec ID : S_HDMV/PGS\nCodec ID/Info : The same subtitle format used on BDs/HD-DVDs\nTitle : Signs And Songs\nLanguage : English\nDefault : Yes\nForced : No\n\nText #2\nID : 5\nFormat : PGS\nMuxing mode : zlib\nCodec ID : S_HDMV/PGS\nCodec ID/Info : The same subtitle format used on BDs/HD-DVDs\nTitle : English\nLanguage : English\nDefault : No\nForced : No\n\nMenu\n00:00:00.000 : en:Chapter 01 Prologue\n00:02:03.998 : en:Chapter 02 Opening Theme\n00:03:36.007 : en:Chapter 03 Episode Part A\n00:12:35.004 : en:Chapter 04 Episode Part B\n00:23:55.976 : en:Chapter 05 End Theme\n00:25:25.941 : en:Chapter 06 Next Episode Preview","torrent":{"xt":"urn:btih:bf0be494a67c7f5e9209e7b031e2f2fc5a92c091","amp;dn":"Attack+On+Titan+%2801-13%29+%5BBD+720p%5D+%5BDual+Audio%5D+%5BHi10%5D","amp;tr":["udp%3A%2F%2Ftracker.openbittorrent.com%3A80","udp%3A%2F%2Fopen.demonii.com%3A1337","udp%3A%2F%2Ftracker.coppersurfer.tk%3A6969","udp%3A%2F%2Fexodus.desync.com%3A6969"],"infoHash":"bf0be494a67c7f5e9209e7b031e2f2fc5a92c091","infoHashBuffer":{"type":"Buffer","data":[191,11,228,148,166,124,127,94,146,9,231,176,49,226,242,252,90,146,192,145]},"announce":[],"urlList":[]}}